<svg version="1.0" xmlns="http://www.w3.org/2000/svg" width="3277.333" height="3277.333" viewBox="0 0 2458 2458"><path d="M2453.8 756.5c-.1.1-5.9.6-12.8.9-6.9.4-14.1.9-16 1.1-1.9.2-8.2.6-14 1-5.8.3-12.1.8-14 .9-1.9.2-8.4.7-14.5 1-6 .4-12.6.9-14.5 1.1-5.3.5-16.6 1.4-25.5 2-4.4.3-9.8.7-12 1-2.2.3-7.4.7-11.5 1-4.1.3-9.5.7-12 1-2.5.2-7.4.7-11 1-3.6.3-8.5.8-11 1.1-2.5.3-7.4.7-11 1-3.6.2-8.5.7-11 .9-2.5.3-7 .7-10 1-3 .3-9.8 1-15 1.5-5.2.5-12.2 1.2-15.5 1.5-3.3.4-7.1.8-8.5 1-1.4.2-5.9.7-10 1-4.1.3-8.6.8-10 1-1.4.2-5.4.7-9 1-3.6.4-7.2.8-8.1 1-.8.2-4.9.6-9 1-4.1.3-8.1.8-8.9 1-.8.2-4.2.6-7.5 1-5.7.6-10.7 1.1-18.5 2-1.9.2-8.7 1.1-15 1.9-6.3.8-14 1.8-17 2.1-3 .3-6.6.8-8 1-1.4.3-5 .7-8 1-3 .3-6.6.7-8 1-2.5.4-6.9 1-14.4 2-3.9.4-10 1.3-14.6 2-1.4.2-7.9 1.1-14.5 2-6.6.8-13.3 1.8-15 2-1.6.3-6.4 1-10.5 1.6-10.5 1.4-11.6 1.6-19.5 2.8-3.8.6-8.6 1.3-10.5 1.6-6.5.9-16.5 2.5-19 2.9-1.4.2-4.6.7-7.1 1-2.5.4-5.7.9-7 1.1-1.3.2-13.4 2.2-26.9 4.5-13.5 2.2-25.6 4.2-27 4.4-1.4.3-13.3 2.3-26.5 4.6-13.2 2.2-25.1 4.2-26.5 4.5-2.1.4-27.2 5.1-37.5 7-2.8.5-9.3 1.8-15.5 3-1.4.3-4.1.8-6 1.1-1.9.3-8.7 1.6-15 2.9-6.3 1.4-13.1 2.7-15 3-1.9.3-4.2.8-5 1-.8.2-2.6.6-4 .9-2.3.4-16.1 3.2-20.5 4.1-4.7 1-27.2 5.7-29.3 6.1-4.2.8-25.4 5.4-41.7 9-8.8 2-16.7 3.7-17.5 3.9-.8.2-5.4 1.2-10.2 2.4-4.8 1.1-9.8 2.3-11 2.5-1.3.3-3.2.7-4.3 1-1.1.2-5.1 1.2-9 2.1-3.8.9-7.7 1.8-8.5 2-.8.2-9.1 2.2-18.5 4.5-9.3 2.3-17.8 4.3-18.8 4.5-.9.2-4.5 1.1-8 2-3.4.9-6.9 1.8-7.7 2-4.5.9-63.6 16.2-75.6 19.5-7.8 2.2-15.9 4.4-18 4.9-2.2.5-12.9 3.5-23.9 6.6-11 3.1-23.8 6.7-28.5 8-4.7 1.3-11.6 3.3-15.5 4.5-6.4 1.9-17.4 5.2-39 11.5-23.9 6.9-115.9 36.3-131.5 42-3.6 1.3-13.7 4.8-22.5 7.8-122.5 41.8-267.5 100.6-380 154.2-4.9 2.4-13.9 6.6-20 9.5-14.5 6.9-82.7 41-99.1 49.6-20.2 10.5-29.7 15.5-32.9 17.4-1.6.9-7.5 4.1-13 7-5.5 2.9-14.9 8.1-21 11.5-6 3.4-15 8.4-20 11.1-4.9 2.7-9.8 5.3-10.7 5.9-.9.5-7.2 4.1-14 8-6.8 3.8-13.2 7.5-14.3 8.2-1.1.7-2.7 1.5-3.5 1.9-6.5 3.2-85.4 51.2-115.4 70.3-17.9 11.4-84.6 56.1-100.6 67.4-9.1 6.4-17.3 12.2-18.3 12.9-3.2 2.3-25.3 18.2-27.8 20.1-1.3.9-6.7 4.9-11.9 8.7-18.6 13.8-76.5 58.2-78 59.9-.3.3-5.2 4.4-11 9.1-14.5 11.7-45.2 37-47.1 38.9-.9.9-2.9 2.7-4.5 4-3.7 3.1-23.3 20.1-25.5 22.1-.9.8-4.9 4.4-8.9 8-4 3.6-9.6 8.5-12.3 11-2.7 2.5-5.7 5.2-6.7 6-.9.8-6.6 6-12.5 11.5s-11.9 11.1-13.4 12.4c-7 6.4-54 52.1-55.8 54.2-1 1.2 19 1.4 143.2 1.4h144.3l18.9-18.6c20.1-19.9 23.7-23.4 43.7-42.2 7.1-6.7 13.9-13.1 15-14.2 2.5-2.4 20.7-18.9 32.5-29.5 4.6-4.1 8.9-8 9.5-8.5 2-1.9 19.1-16.7 21.6-18.9 1.4-1.2 7.5-6.4 13.5-11.6 29.7-25.6 66.9-56 99-81 3.8-3 7.7-6 8.5-6.7 5.8-4.6 21.5-16.6 26.4-20.3 3.3-2.4 6.7-4.9 7.5-5.6 3.3-2.6 41-30.4 52.5-38.5 11.3-8 14.5-10.3 24.6-17.3 2.5-1.7 4.7-3.3 5-3.6.3-.3 2.5-1.9 5-3.6 2.5-1.7 8.1-5.6 12.5-8.6 69.8-48.2 183.3-118.4 246-152.3 3.9-2 7.5-4.1 8-4.5.6-.4 5.5-3.1 11-6s10.5-5.6 11-6c.6-.4 4.4-2.5 8.5-4.7s10.9-5.8 15-8c22-11.8 49-25.8 72.5-37.6 22.2-11.2 64.6-31.9 73-35.7 2.8-1.2 9.7-4.5 15.5-7.2 5.8-2.8 17.9-8.4 27-12.5 9.1-4.1 18.5-8.3 21-9.5 2.5-1.1 6.3-2.9 8.5-3.9 9.7-4.4 41.4-18.2 56-24.4 8.8-3.7 17.8-7.5 20-8.5 2.2-1 10.3-4.3 18-7.5 7.7-3.1 15.4-6.3 17-7 5.4-2.4 55.6-22.2 73.5-28.9 9.6-3.7 18.6-7.1 20-7.7 4.9-2.1 65.9-24.3 87-31.6 37.3-13 121.6-40.8 139-45.8 2.5-.7 14.9-4.5 27.5-8.3 12.7-3.9 28-8.4 34-10.1 6.1-1.8 14.6-4.3 19-5.6 26.3-7.9 102.8-28.3 144.5-38.5 15.7-3.9 31-7.7 34-8.5 5.1-1.3 24.3-5.8 45-10.5 4.7-1.1 11.7-2.6 15.5-3.5 6.6-1.6 13.6-3.1 18-3.9 1.1-.3 10.6-2.3 21-4.6 22.6-4.9 41-8.8 44.5-9.4 1.4-.2 3.6-.7 5-1 1.4-.3 3.6-.8 5-1 1.4-.2 3.6-.7 5-1 1.4-.3 3.6-.8 5-1 1.4-.2 5.9-1.1 10-1.9 4.1-.9 9.1-1.9 11-2.2 1.9-.3 4.2-.8 5-1 .8-.2 3.2-.6 5.4-1 2.1-.3 4.1-.7 4.5-.9.3-.3 2.7-.7 5.1-1.1 2.5-.3 8.1-1.3 12.5-2.1 7-1.3 23.2-4.3 32-5.8 1.7-.3 4-.8 5.1-1 1.2-.2 3.8-.7 5.7-1 2-.3 14.6-2.4 27.9-4.7 13.4-2.2 25.7-4.3 27.3-4.5 1.7-.3 9.8-1.6 18-2.9 8.3-1.3 17-2.6 19.5-3 5.7-.8 8.5-1.2 13.5-1.9 2.2-.4 5.6-.9 7.6-1.1 2-.3 7.9-1.1 13-1.9 11.1-1.7 18.3-2.7 22.4-3.1 1.7-.2 6.6-.8 11-1.4 4.5-.6 9.9-1.3 12-1.6 2.2-.3 5.6-.7 7.5-1 1.9-.3 5.8-.8 8.5-1.1 2.8-.3 6.1-.7 7.5-.9 1.4-.2 5.1-.7 8.3-1 3.2-.4 6.6-.8 7.5-1 .9-.1 4.9-.6 8.7-1 3.9-.4 8.1-.8 9.5-1 2.4-.4 5.9-.7 19-2.1 3.6-.3 7.2-.8 8-.9 1.4-.3 10.7-1.2 19.5-2 2.2-.2 6.3-.6 9-.9 2.8-.3 8.2-.8 12-1.1 3.9-.4 7.1-.8 7.3-1 .4-.4-2.5-1.4-3-1zM22 1104.4c1.3 1.2 21.6 16.2 69.5 51.1 7.5 5.5 14.4 10.6 15.3 11.3 2.3 1.7 45.9 33.6 61.2 44.7 6.8 4.9 16 11.7 20.4 15 4.5 3.3 16.9 12.4 27.6 20.3 20.8 15.1 65.9 48.1 70 51.2 1.4 1 14.9 10.9 30 22 15.1 11 28.9 21.2 30.5 22.5 1.7 1.3 4.4 3.2 6 4.1l3.1 1.6 18.9-12.4c43.9-28.8 64.5-41.8 105-65.9 32.6-19.5 32.6-19.5 30.5-20.8-1.2-.8-33.9-24-41.5-29.5-5.2-3.7-34.2-24.6-39.9-28.6-3.4-2.5-10.7-7.7-16-11.5-12.8-9.2-14.6-10.4-19.7-14.1-2.4-1.7-23.1-16.4-45.9-32.7l-41.4-29.7H163.1c-122.4 0-142.3.2-141.1 1.4z"/><path d="M710.7 1414.8c-3.7 2.6-9.3 6.5-12.5 8.7-45 31.4-125.2 92-123.5 93.4.4.4 5.1 3.8 10.3 7.6 5.2 3.8 11.8 8.5 14.5 10.5 2.8 2 24.4 17.8 48 35 23.7 17.2 46.6 34 51 37.2 4.4 3.3 8.9 6.6 10 7.4 3 2.1 49.7 36.1 52 37.8 1.1.8 16.6 12.2 34.5 25.2l32.5 23.8 142.7.1c78.4 0 142.4-.3 142.2-.6-.3-.6-30-22.6-52.2-38.7-4.8-3.4-9.4-6.8-10.2-7.5-2.5-2-11.8-8.9-22-16.3-5.2-3.8-12.5-9.2-16.2-11.9-3.7-2.8-14.7-10.9-24.4-18-9.7-7.2-23.3-17.2-30.2-22.3-6.9-5.1-15.5-11.4-19.1-14-3.6-2.5-6.8-4.9-7.1-5.2-.5-.6-26.1-19.5-88-65-5.2-3.8-13.6-10-18.7-13.7-5-3.8-15.3-11.4-23-17-7.6-5.6-14.7-10.9-15.8-11.8-1.1-.8-5.1-3.8-9-6.6-6.6-4.8-28.1-20.6-48.7-35.9-5.1-3.8-9.5-6.9-9.8-6.9-.3 0-3.5 2.1-7.3 4.7z"/></svg>